<svg width="60" height="60" viewBox="0 0 60 60" fill="none" xmlns="http://www.w3.org/2000/svg">
<g clip-path="url(#clip0_293_117)">
<path d="M52.3325 21.4104C52.3325 39.8638 36.6121 55.3112 32.1219 59.347C31.4417 59.9584 30.4486 59.9418 29.7864 59.3108C25.3414 55.0746 9.54248 38.795 9.54248 21.4104C9.53738 9.58666 19.1172 0 30.9324 0C42.7476 0 52.3274 9.58666 52.3274 21.4104H52.3325Z" fill="#296AEB"/>
<path d="M30.9376 31.0661C36.2791 31.0661 40.6093 26.7359 40.6093 21.3944C40.6093 16.0528 36.2791 11.7227 30.9376 11.7227C25.596 11.7227 21.2659 16.0528 21.2659 21.3944C21.2659 26.7359 25.596 31.0661 30.9376 31.0661Z" fill="white"/>
</g>
<defs>
<clipPath id="clip0_293_117">
<rect width="60" height="60" fill="white"/>
</clipPath>
</defs>
</svg>
