<?xml version="1.0" encoding="utf-8"?>
<!-- Generator: Adobe Illustrator 27.3.1, SVG Export Plug-In . SVG Version: 6.00 Build 0)  -->
<svg version="1.1" id="Layer_1" xmlns="http://www.w3.org/2000/svg" xmlns:xlink="http://www.w3.org/1999/xlink" x="0px" y="0px"
	 viewBox="0 0 16 16" style="enable-background:new 0 0 16 16;" xml:space="preserve">
<style type="text/css">
	.st0{fill:#18F27A;}
	.st1{fill:#161728;}
</style>
<rect class="st0" width="16" height="16"/>
<path class="st1" d="M13.3,3.8c-0.1-0.4-0.2-0.8-0.5-1.1c-0.3-0.3-0.6-0.5-1-0.7L9.3,1.1C9.1,1,8.7,1,8.4,1C8.1,1,7.8,1.1,7.5,1.2
	C7.3,1.3,7,1.5,6.8,1.8C6.6,2,6.4,2.3,6.3,2.6L5.4,5.4c-0.1,0.3-0.1,0.7-0.1,1l1.2-0.8c0.1-0.1,0.2-0.1,0.4-0.1
	c0.3,0,0.6,0.2,0.6,0.5l1.1,3.7c0.1,0.2,0,0.4-0.1,0.6c-0.1,0.2-0.3,0.3-0.5,0.3c-0.1,0-0.2,0-0.2,0l-0.2-0.1l-0.7,1.9
	c0,0,0,0.1-0.1,0.1c0,0,0,0-0.1,0c-0.1,0-0.1,0-0.2,0c-0.1,0-0.1-0.1-0.1-0.1c0-0.1,0-0.1,0-0.2l0.9-2.4l0.7,0.3
	c0.2,0.1,0.3-0.1,0.3-0.3L7.1,6.1C7,6,6.9,5.9,6.8,6L5.4,6.9L3.5,8.1c-0.2,0.1-0.1,0.3,0,0.4L4,8.7L3.2,11c0,0,0,0,0,0
	C3.1,11.2,3,11.3,3,11.5c-0.1,0.4,0,0.9,0.2,1.3c0.3,0.6,0.7,1,1.3,1.2L7,14.9c1.2,0.4,2.6-0.2,3-1.4l1.1-3.3C11.5,9,11,7.6,9.7,7.2
	L9.2,7C8.8,6.8,8.5,6.3,8.7,5.9l0.8-2.3c0-0.1,0.1-0.1,0.1-0.1c0.1,0,0.1,0,0.2,0c0.1,0,0.1,0.1,0.1,0.1c0,0.1,0,0.1,0,0.2L9.2,6
	c-0.1,0.2,0,0.4,0.2,0.5l2.5,0.9c0.2,0.1,0.4,0,0.5-0.2L13.2,5C13.3,4.6,13.4,4.2,13.3,3.8L13.3,3.8z"/>
</svg>
