<svg width="161" height="160" viewBox="0 0 161 160" fill="none" xmlns="http://www.w3.org/2000/svg">
<rect x="0.5" width="160" height="160" rx="20" fill="#18F27A"/>
<g clip-path="url(#clip0_212_150)">
<path d="M89.4785 9H71.5165C69.8149 9 68.4355 10.3673 68.4355 12.0539V47.0113C68.4355 48.6979 69.8149 50.0652 71.5165 50.0652H89.4785C91.1801 50.0652 92.5595 48.6979 92.5595 47.0113V12.0539C92.5595 10.3673 91.1801 9 89.4785 9Z" fill="#25252E"/>
<path d="M89.4526 14.6299H71.5471C71.2862 14.6299 71.0747 14.8395 71.0747 15.0982V43.9629C71.0747 44.2215 71.2862 44.4312 71.5471 44.4312H89.4526C89.7136 44.4312 89.9251 44.2215 89.9251 43.9629V15.0982C89.9251 14.8395 89.7136 14.6299 89.4526 14.6299Z" fill="white"/>
<path d="M23.3984 36.5406L14.4174 51.9597C13.5666 53.4204 14.0715 55.2881 15.5451 56.1315L46.087 73.6101C47.5606 74.4534 49.4449 73.953 50.2957 72.4923L59.2767 57.0732C60.1275 55.6126 59.6226 53.7448 58.149 52.9015L27.6071 35.4228C26.1335 34.5795 24.2492 35.08 23.3984 36.5406Z" fill="#25252E"/>
<path d="M28.3013 39.3811L19.3485 54.7517C19.2181 54.9757 19.2955 55.2621 19.5214 55.3914L44.7403 69.8237C44.9662 69.953 45.2552 69.8763 45.3856 69.6523L54.3384 54.2817C54.4688 54.0578 54.3914 53.7714 54.1655 53.6421L28.9466 39.2097C28.7207 39.0804 28.4317 39.1571 28.3013 39.3811Z" fill="white"/>
<path d="M14.4165 107.038L23.3975 122.457C24.2483 123.917 26.1326 124.418 27.6062 123.575L58.1481 106.096C59.6217 105.253 60.1266 103.385 59.2758 101.924L50.2948 86.5051C49.444 85.0444 47.5597 84.544 46.0861 85.3873L15.5442 102.866C14.0706 103.709 13.5657 105.577 14.4165 107.038Z" fill="#25252E"/>
<path d="M19.3501 104.249L28.3029 119.62C28.4333 119.844 28.7222 119.921 28.9482 119.791L54.167 105.359C54.393 105.23 54.4704 104.943 54.3399 104.719L45.3872 89.3486C45.2567 89.1247 44.9678 89.0479 44.7419 89.1772L19.523 103.61C19.2971 103.739 19.2196 104.025 19.3501 104.249Z" fill="white"/>
<path d="M71.5215 150H89.4835C91.1851 150 92.5645 148.633 92.5645 146.946V111.989C92.5645 110.302 91.1851 108.935 89.4835 108.935H71.5215C69.8199 108.935 68.4405 110.302 68.4405 111.989V146.946C68.4405 148.633 69.8199 150 71.5215 150Z" fill="#25252E"/>
<path d="M71.5469 144.37H89.4524C89.7133 144.37 89.9248 144.16 89.9248 143.902V115.037C89.9248 114.778 89.7133 114.569 89.4524 114.569H71.5469C71.286 114.569 71.0745 114.778 71.0745 115.037V143.902C71.0745 144.16 71.286 144.37 71.5469 144.37Z" fill="white"/>
<path d="M137.6 122.456L146.581 107.037C147.432 105.577 146.927 103.709 145.453 102.866L114.911 85.3869C113.438 84.5436 111.554 85.0441 110.703 86.5048L101.722 101.924C100.871 103.385 101.376 105.252 102.85 106.096L133.391 123.574C134.865 124.418 136.749 123.917 137.6 122.456Z" fill="#25252E"/>
<path d="M132.694 119.62L141.647 104.249C141.778 104.025 141.7 103.739 141.474 103.61L116.255 89.1772C116.029 89.0479 115.74 89.1247 115.61 89.3486L106.657 104.719C106.527 104.943 106.604 105.23 106.83 105.359L132.049 119.791C132.275 119.921 132.564 119.844 132.694 119.62Z" fill="white"/>
<path d="M146.585 51.9594L137.604 36.5403C136.753 35.0796 134.869 34.5792 133.395 35.4225L102.853 52.9011C101.38 53.7445 100.875 55.6122 101.726 57.0729L110.707 72.492C111.557 73.9526 113.442 74.4531 114.915 73.6098L145.457 56.1311C146.931 55.2878 147.436 53.42 146.585 51.9594Z" fill="#25252E"/>
<path d="M141.654 54.7517L132.701 39.3811C132.571 39.1571 132.282 39.0804 132.056 39.2097L106.837 53.6421C106.611 53.7714 106.534 54.0578 106.664 54.2818L115.617 69.6524C115.747 69.8763 116.036 69.9531 116.262 69.8238L141.481 55.3914C141.707 55.2621 141.784 54.9757 141.654 54.7517Z" fill="white"/>
<path d="M80.4977 35.5077C83.8271 35.5077 86.5261 32.8324 86.5261 29.5322C86.5261 26.232 83.8271 23.5566 80.4977 23.5566C77.1683 23.5566 74.4692 26.232 74.4692 29.5322C74.4692 32.8324 77.1683 35.5077 80.4977 35.5077Z" fill="#296AEB"/>
<path d="M79.7119 31.9498L77.4937 29.7561L78.2228 29.0333L79.7119 30.5145L82.7775 27.4707L83.5067 28.1935L79.7119 31.9498Z" fill="white"/>
<path d="M80.4973 100.511C92.2041 100.511 101.694 91.1044 101.694 79.5003C101.694 67.8962 92.2041 58.4893 80.4973 58.4893C68.7905 58.4893 59.3003 67.8962 59.3003 79.5003C59.3003 91.1044 68.7905 100.511 80.4973 100.511Z" fill="#296AEB"/>
<path d="M78.3147 86.341L72.1733 80.2535L74.1862 78.2583L78.3147 82.3505L86.813 73.9268L88.8259 75.922L78.3147 86.341Z" fill="white"/>
<path d="M36.8453 60.494C40.1747 60.494 42.8737 57.8187 42.8737 54.5185C42.8737 51.2183 40.1747 48.543 36.8453 48.543C33.5159 48.543 30.8169 51.2183 30.8169 54.5185C30.8169 57.8187 33.5159 60.494 36.8453 60.494Z" fill="#296AEB"/>
<path d="M35.5361 57.2055L35.269 56.2232L37.3076 55.6836L36.1831 51.5303L37.1741 51.2656L38.5605 56.4013L35.5361 57.2055Z" fill="white"/>
<path d="M36.8453 110.462C40.1747 110.462 42.8737 107.786 42.8737 104.486C42.8737 101.186 40.1747 98.5107 36.8453 98.5107C33.5159 98.5107 30.8169 101.186 30.8169 104.486C30.8169 107.786 33.5159 110.462 36.8453 110.462Z" fill="#296AEB"/>
<path d="M38.5397 106.95L37.5486 106.69L38.0929 104.669L33.9028 103.56L34.1698 102.572L39.351 103.952L38.5397 106.95Z" fill="white"/>
<path d="M80.4977 135.443C83.8271 135.443 86.5261 132.768 86.5261 129.468C86.5261 126.168 83.8271 123.492 80.4977 123.492C77.1683 123.492 74.4692 126.168 74.4692 129.468C74.4692 132.768 77.1683 135.443 80.4977 135.443Z" fill="#296AEB"/>
<path d="M78.2228 131.529L77.4937 130.806L81.2884 127.05L83.5067 129.244L82.7775 129.966L81.2884 128.485L78.2228 131.529Z" fill="white"/>
<path d="M124.155 110.462C127.484 110.462 130.183 107.786 130.183 104.486C130.183 101.186 127.484 98.5107 124.155 98.5107C120.825 98.5107 118.126 101.186 118.126 104.486C118.126 107.786 120.825 110.462 124.155 110.462Z" fill="#296AEB"/>
<path d="M123.826 107.734L122.435 102.598L125.464 101.794L125.731 102.776L123.693 103.316L124.817 107.469L123.826 107.734Z" fill="white"/>
<path d="M124.155 60.494C127.484 60.494 130.183 57.8187 130.183 54.5185C130.183 51.2183 127.484 48.543 124.155 48.543C120.825 48.543 118.126 51.2183 118.126 54.5185C118.126 57.8187 120.825 60.494 124.155 60.494Z" fill="#296AEB"/>
<path d="M126.83 56.4271L121.649 55.0477L122.46 52.0498L123.451 52.3094L122.907 54.3301L127.092 55.4448L126.83 56.4271Z" fill="white"/>
</g>
<defs>
<clipPath id="clip0_212_150">
<rect width="133" height="141" fill="white" transform="translate(14 9)"/>
</clipPath>
</defs>
</svg>
