<svg width="161" height="160" viewBox="0 0 161 160" fill="none" xmlns="http://www.w3.org/2000/svg">
<g clip-path="url(#clip0_212_145)">
<rect x="0.5" width="160" height="160" rx="20" fill="#F5F9FF"/>
<path d="M94.54 31.36L78.9 38.52V38.58C78.9 48.7 74.85 57.91 68.27 64.6L78.8 87.97L107.25 74.8V58.76L94.54 31.36ZM81.91 92.84L91.48 113.93H107.25V80.95L81.91 92.84ZM134.65 15.36L100.59 29.28L113.18 54.69V113.93L184.54 47.49V15.36H134.65ZM189.79 15.36V27.94H202.38V15.36H189.79ZM81.91 92.84L91.48 113.93H107.25V80.95L81.91 92.84ZM94.54 31.36L78.9 38.52V38.58C78.9 48.7 74.85 57.91 68.27 64.6L78.8 87.97L107.25 74.8V58.76L94.54 31.36ZM189.79 15.36V27.94H202.38V15.36H189.79ZM134.65 15.36L100.59 29.28L113.18 54.69V113.93L184.54 47.49V15.36H134.65ZM41.69 23.77C33.52 23.77 26.89 30.4 26.89 38.58C26.89 46.76 33.52 53.38 41.69 53.38C49.86 53.38 56.5 46.75 56.5 38.58C56.5 30.41 49.87 23.77 41.69 23.77ZM41.69 23.77C33.52 23.77 26.89 30.4 26.89 38.58C26.89 46.76 33.52 53.38 41.69 53.38C49.86 53.38 56.5 46.75 56.5 38.58C56.5 30.41 49.87 23.77 41.69 23.77ZM-29.89 149.36V155.5L-6.48 178.89H-0.35L-29.89 149.36ZM11.01 119.76L-16.81 154.62L-2.58 169.45L13.08 151.46H27.16L11.01 119.76ZM-0.690001 21.88H-20.53V9.07H-29.89C-30.13 10.11 -29.89 11.21 -29.89 12.33V41.96L-21.92 49.5L7.42 31.54L-0.690001 21.88ZM-29.89 84.97V142.68L-21.1 151.47L7.42 115.52L-29.89 84.97ZM30.72 74.55C21.1 71.59 13.13 64.87 8.53 56.12L-26.99 77.86L11.42 110.51L38.51 84.52L30.72 74.55ZM47.08 156.93V178.89H73.04V156.93H47.08ZM131.02 161.01V171.53H140.05V161.01H131.02ZM118.43 137.3V156.93H140.05V116.72L118.43 137.3ZM118.44 161.02V178.89H128.37V161.02H118.44ZM95.34 158.29V178.89H114.23V140.91L95.34 158.29ZM33.92 156.93V178.89H43.03V156.93H33.92ZM50.47 82.2L15.81 115.12L33.34 150.62H73.04V127.85L50.47 82.2ZM15.81 156.93L2.29 173.01L7.81 178.89H29.89V156.93H15.81ZM248.59 -3V4.92H262.96V-3H248.59ZM-16.3 9.06V16.7H-8.66V9.06H-16.3ZM257.67 45.46V65.96H276.51V45.46H257.67ZM131.02 174.14V178.89H140.05V174.14H131.02ZM245.15 7.94V-0.62H237.5V20.03H276.51V7.94H245.15ZM265.15 -3V4.92H276.52V-3H265.15ZM258.72 24.91V42.02H276.51V24.91H258.72ZM237.03 24.91L221.05 40.89V65.96H253.97V24.91H237.03ZM-1.67 -3V12.07H2.65V-3H-1.67ZM-30 -3V2.64H-6.62V-3H-30ZM8.62 -3V12.71H15.9C22.78 6.62 31.42 2.52 41 1.29V-3H8.62ZM74.33 -3V18.59L89.49 12.48V-3H74.33ZM220.81 -0.62V32.98L233.4 20.39V-0.62H220.81ZM106.15 -3V5.75L126.42 -3H106.15ZM134.65 15.36L100.59 29.28L113.18 54.69V113.93L184.54 47.49V15.36H134.65ZM94.54 31.36L78.9 38.52V38.58C78.9 48.7 74.85 57.91 68.27 64.6L78.8 87.97L107.25 74.8V58.76L94.54 31.36ZM81.91 92.84L91.48 113.93H107.25V80.95L81.91 92.84ZM134.65 15.36L100.59 29.28L113.18 54.69V113.93L184.54 47.49V15.36H134.65ZM189.79 15.36V27.94H202.38V15.36H189.79ZM189.79 15.36V27.94H202.38V15.36H189.79ZM100.59 29.28L113.18 54.69V113.93L184.54 47.49V15.36H134.65L100.59 29.28ZM91.48 113.93H107.25V80.95L81.91 92.84L91.48 113.93ZM78.9 38.52V38.58C78.9 48.7 74.85 57.91 68.27 64.6L78.8 87.97L107.25 74.8V58.76L94.54 31.36L78.9 38.52ZM284.24 78.68V-3H279.91V70.02H217.6V-0.71H200.57V-3H196.23V-0.71H131.84L102.05 12.31V-3H93.4V16.09L70.11 26.28C65.34 15.38 54.45 7.73 41.81 7.73C25.64 7.73 12.36 20.23 11.1 36.07V36.1L-23.5 57.26L-29.89 50.87V71.34L11.83 45.79C15.1 59.31 27.3 69.42 41.81 69.42C45.67 69.42 49.36 68.71 52.77 67.41L81.51 127.85V178.89H90.17V154.68L145.29 103.98V178.89H149.62V99.99L208.94 45.43V133.67L240.56 163.49L225.16 178.89H237.4L246.85 169.45L256.87 178.89H269.48L217.6 129.94V107.43H260.45V116.38H264.79V103.09H217.6V78.68H284.24ZM41.81 60.76C29.58 60.76 19.62 50.81 19.62 38.57C19.62 26.33 29.58 16.39 41.81 16.39C54.04 16.39 64.01 26.34 64.01 38.57C64.01 50.8 54.05 60.76 41.81 60.76ZM208.94 33.65L90.17 142.92V125.9L60.36 63.22C67.82 57.56 72.66 48.63 72.66 38.57C72.66 37.28 72.57 35.99 72.41 34.73L133.67 7.94H208.94V33.65ZM202.38 15.36H189.79V27.94H202.38V15.36ZM113.18 54.69V113.93L184.54 47.49V15.36H134.65L100.59 29.28L113.18 54.69ZM91.48 113.93H107.25V80.95L81.91 92.84L91.48 113.93ZM78.9 38.52V38.58C78.9 48.7 74.85 57.91 68.27 64.6L78.8 87.97L107.25 74.8V58.76L94.54 31.36L78.9 38.52ZM41.69 23.77C33.52 23.77 26.89 30.4 26.89 38.58C26.89 46.76 33.52 53.38 41.69 53.38C49.86 53.38 56.5 46.75 56.5 38.58C56.5 30.41 49.87 23.77 41.69 23.77ZM41.69 23.77C33.52 23.77 26.89 30.4 26.89 38.58C26.89 46.76 33.52 53.38 41.69 53.38C49.86 53.38 56.5 46.75 56.5 38.58C56.5 30.41 49.87 23.77 41.69 23.77ZM94.54 31.36L78.9 38.52V38.58C78.9 48.7 74.85 57.91 68.27 64.6L78.8 87.97L107.25 74.8V58.76L94.54 31.36ZM81.91 92.84L91.48 113.93H107.25V80.95L81.91 92.84ZM134.65 15.36L100.59 29.28L113.18 54.69V113.93L184.54 47.49V15.36H134.65ZM189.79 15.36V27.94H202.38V15.36H189.79ZM154.11 149.82V175.25H178.42V149.82H154.11ZM221.05 82.67V99.68H238.06V82.67H221.05ZM284.24 78.68V-3V78.68ZM284.24 118.84V82.67V118.84ZM248.21 82.67L241.46 89.79V99.68H267.88V82.67H248.21ZM243.61 110.84V148.27L255.9 159.86V110.84H243.61ZM221.27 110.84L221.05 126.41L239.34 144.71V110.84H221.27ZM259.8 144.7V164.13L276.02 178.89H284.24V144.7H259.8ZM210.4 141.51H184.1V166.93H193.05V175.25H220.15L233.39 162.95L210.4 141.51ZM246.25 175.38L242.82 178.89H250.09L246.25 175.38ZM192.55 121.74V137.3H204.6V121.74H192.55ZM154.11 121.74V146.14H178.42V137.3H188.57V121.74H154.11ZM175.74 83.52V116.81H204.6V57L175.74 83.52ZM154.11 104.13V116.72H172.41V87.3L154.11 104.13ZM259.81 121.28V140.19H284.24V121.28H259.81ZM81.91 92.84L91.48 113.93H107.25V80.95L81.91 92.84ZM94.54 31.36L78.9 38.52V38.58C78.9 48.7 74.85 57.91 68.27 64.6L78.8 87.97L107.25 74.8V58.76L94.54 31.36ZM284.24 178.89V144.7V178.89ZM41.69 23.77C33.52 23.77 26.89 30.4 26.89 38.58C26.89 46.76 33.52 53.38 41.69 53.38C49.86 53.38 56.5 46.75 56.5 38.58C56.5 30.41 49.87 23.77 41.69 23.77ZM189.79 15.36V27.94H202.38V15.36H189.79ZM274.06 82.67V118.84H284.24V82.67H274.06ZM-14.05 178.87L-29.71 163.21V178.89H-14.05L-14.08 178.87H-14.05Z" fill="#18F27A"/>
<path d="M140 93L96.5 133L64.5 64C68.8333 59.8333 76.5 50 75.5 36.5L117.5 18.5" stroke="#296AEB" stroke-width="3" stroke-linejoin="round"/>
<circle cx="116" cy="19" r="6" fill="#296AEB"/>
<path d="M143.481 88.4022C144.234 88.2418 144.878 88.9566 144.641 89.6889L139.029 106.988C138.791 107.72 137.85 107.921 137.335 107.349L125.159 93.8395C124.644 93.2676 124.941 92.3523 125.694 92.1919L143.481 88.4022Z" fill="#296AEB"/>
</g>
<rect x="2" y="1.5" width="157" height="157" rx="18.5" stroke="#18F27A" stroke-width="3"/>
<defs>
<clipPath id="clip0_212_145">
<rect x="0.5" width="160" height="160" rx="20" fill="white"/>
</clipPath>
</defs>
</svg>
