<svg width="161" height="160" viewBox="0 0 161 160" fill="none" xmlns="http://www.w3.org/2000/svg">
<g clip-path="url(#clip0_212_140)">
<rect x="1" width="160" height="160" rx="20" fill="#18F27A"/>
<path d="M43.2904 104.396H41.0732V120.246H43.2904V104.396Z" fill="#464869"/>
<path d="M29.0065 111.361L27.8979 113.281L41.6253 121.206L42.7339 119.286L29.0065 111.361Z" fill="#464869"/>
<path d="M41.6319 119.282L27.9045 127.207L29.0131 129.127L42.7405 121.202L41.6319 119.282Z" fill="#464869"/>
<path d="M43.2904 120.245H41.0732V136.094H43.2904V120.245Z" fill="#464869"/>
<path d="M42.7341 119.286L41.6255 121.206L55.3529 129.131L56.4615 127.211L42.7341 119.286Z" fill="#464869"/>
<path d="M55.3568 111.36L41.6294 119.284L42.738 121.204L56.4654 113.28L55.3568 111.36Z" fill="#464869"/>
<path d="M42.1806 143.419C29.3986 143.419 19 133.022 19 120.241C19 107.461 29.3986 97.0635 42.1806 97.0635C54.9627 97.0635 65.3613 107.461 65.3613 120.241C65.3613 133.022 54.9627 143.419 42.1806 143.419ZM42.1806 108.702C35.8173 108.702 30.6402 113.879 30.6402 120.241C30.6402 126.604 35.8173 131.78 42.1806 131.78C48.5439 131.78 53.7211 126.604 53.7211 120.241C53.7211 113.879 48.5439 108.702 42.1806 108.702Z" fill="#2C2E49"/>
<path d="M42.1823 137.014C32.933 137.014 25.4075 129.49 25.4075 120.242C25.4075 110.993 32.933 103.469 42.1823 103.469C51.4316 103.469 58.9571 110.993 58.9571 120.242C58.9571 129.49 51.4316 137.014 42.1823 137.014ZM42.1823 105.318C33.951 105.318 27.2551 112.013 27.2551 120.243C27.2551 128.474 33.951 135.169 42.1823 135.169C50.4136 135.169 57.1095 128.474 57.1095 120.243C57.1095 112.013 50.4136 105.318 42.1823 105.318Z" fill="#464869"/>
<path d="M42.1811 125.195C44.9169 125.195 47.1346 122.977 47.1346 120.242C47.1346 117.507 44.9169 115.289 42.1811 115.289C39.4453 115.289 37.2275 117.507 37.2275 120.242C37.2275 122.977 39.4453 125.195 42.1811 125.195Z" fill="#2C2E49"/>
<path d="M42.1802 89.7256C34.3831 89.7256 27.2696 92.6482 21.8745 97.4589C21.1594 98.0963 21.1391 99.2084 21.8172 99.8846L41.6905 119.756C42.0046 120.07 42.4314 120.247 42.8749 120.247H70.9795C71.9384 120.247 72.7089 119.443 72.6553 118.486C71.7426 102.451 58.4487 89.7274 42.182 89.7274L42.1802 89.7256Z" fill="#464869"/>
<path d="M61.5144 -94.116L38.8257 87.501L53.4929 89.3329L76.1816 -92.2841L61.5144 -94.116Z" fill="#2C2E49"/>
<path d="M56.2064 48.045L45.0171 57.7021L89.0495 108.708L100.239 99.0508L56.2064 48.045Z" fill="#2C2E49"/>
<path d="M216.786 116.465H79.382C78.109 116.465 77.0762 115.433 77.0762 114.16V101.01C77.0762 99.7368 78.109 98.7041 79.382 98.7041H220.419C221.941 98.7041 223.046 100.154 222.642 101.623L219.009 114.773C218.734 115.772 217.823 116.465 216.786 116.465Z" fill="#2C2E49"/>
<path d="M88.637 90.3267L78.5747 100.388H108.919L98.8564 90.3267C96.035 87.5057 91.4584 87.5057 88.637 90.3267Z" fill="#2C2E49"/>
<path d="M43.6723 78.498L38.5149 119.781L45.8485 120.697L51.0059 79.4139L43.6723 78.498Z" fill="#515378"/>
<path d="M44.1812 81.0337L44.181 81.0356C44.0899 81.7645 44.6071 82.4293 45.3362 82.5203L48.3136 82.8922C49.0427 82.9833 49.7075 82.4661 49.7986 81.7372L49.7988 81.7354C49.8898 81.0064 49.3727 80.3416 48.6436 80.2506L45.6662 79.8787C44.9371 79.7877 44.2723 80.3048 44.1812 81.0337Z" fill="#BDC4D9"/>
<path d="M42.1824 122.345C43.3416 122.345 44.2814 121.405 44.2814 120.246C44.2814 119.087 43.3416 118.147 42.1824 118.147C41.0232 118.147 40.0835 119.087 40.0835 120.246C40.0835 121.405 41.0232 122.345 42.1824 122.345Z" fill="#BDC4D9"/>
<path d="M57.4395 78.2138L37.7251 75.8214L41.3724 46.6394L45.1545 32.2627L60.8891 34.7235L61.0037 49.7006L57.4395 78.2138Z" fill="#2C2E49"/>
<path d="M179.819 98.7041H86.0376V107.585H179.819V98.7041Z" fill="#515378"/>
<path d="M22.2539 61.0644V69.9968C22.2539 70.9944 23.1075 71.7777 24.1016 71.6927L36.1686 70.6618C37.0499 70.5861 37.7261 69.849 37.7261 68.9659V62.0935C37.7261 61.2086 37.0499 60.4714 36.1686 60.3975L24.1016 59.3667C23.1075 59.2817 22.2539 60.065 22.2539 61.0626V61.0644Z" fill="#2C2E49"/>
<path d="M40.186 62.6064H36.8362V68.4554H40.186V62.6064Z" fill="#2C2E49"/>
<path d="M48.5282 107.094C48.4414 107.094 48.3509 107.083 48.2622 107.058L39.2142 104.614C38.6729 104.468 38.3514 103.91 38.4973 103.369C38.6433 102.828 39.2013 102.506 39.7427 102.652L48.7906 105.097C49.332 105.242 49.6535 105.8 49.5075 106.342C49.3856 106.794 48.9754 107.094 48.5264 107.094H48.5282Z" fill="#696A8E"/>
<path d="M47.9792 111.357C47.8923 111.357 47.8018 111.346 47.7131 111.322L38.6652 108.878C38.1238 108.732 37.8023 108.174 37.9483 107.633C38.0942 107.092 38.6522 106.77 39.1936 106.916L48.2415 109.36C48.7829 109.506 49.1044 110.064 48.9584 110.605C48.8365 111.058 48.4263 111.357 47.9773 111.357H47.9792Z" fill="#696A8E"/>
<path d="M47.4299 115.622C47.343 115.622 47.2525 115.611 47.1638 115.587L38.1158 113.143C37.5745 112.997 37.253 112.439 37.399 111.897C37.5449 111.356 38.1029 111.035 38.6443 111.181L47.6922 113.625C48.2336 113.771 48.5551 114.329 48.4091 114.87C48.2872 115.323 47.877 115.622 47.428 115.622H47.4299Z" fill="#696A8E"/>
<path d="M49.0788 102.829C48.9919 102.829 48.9014 102.818 48.8127 102.794L39.7648 100.35C39.2234 100.204 38.9019 99.6458 39.0479 99.1045C39.1938 98.5632 39.7518 98.2418 40.2932 98.3877L49.3412 100.832C49.8825 100.978 50.204 101.536 50.058 102.077C49.9361 102.53 49.5259 102.829 49.0769 102.829H49.0788Z" fill="#696A8E"/>
<path d="M49.6266 98.5653C49.5398 98.5653 49.4493 98.5542 49.3606 98.5302L40.3126 96.086C39.7713 95.9401 39.4498 95.3822 39.5957 94.8409C39.7417 94.2996 40.2997 93.9781 40.8411 94.1241L49.889 96.5682C50.4304 96.7141 50.7519 97.2721 50.6059 97.8134C50.4839 98.266 50.0738 98.5653 49.6248 98.5653H49.6266Z" fill="#696A8E"/>
<path d="M50.176 94.3026C50.0891 94.3026 49.9986 94.2915 49.9099 94.2675L40.8619 91.8233C40.3206 91.6774 39.9991 91.1195 40.1451 90.5782C40.291 90.0369 40.849 89.7154 41.3904 89.8614L50.4383 92.3055C50.9797 92.4515 51.3012 93.0094 51.1552 93.5507C51.0333 94.0033 50.6231 94.3026 50.1741 94.3026H50.176Z" fill="#696A8E"/>
<path d="M53.7717 48.6937C53.7513 48.6937 53.7329 48.6937 53.7125 48.69L43.5579 47.3857C43.3047 47.3525 43.1255 47.1215 43.1588 46.8685C43.192 46.6154 43.4211 46.438 43.6761 46.4694L53.8308 47.7737C54.0839 47.8069 54.2631 48.0379 54.2299 48.291C54.2003 48.5238 54.0008 48.6937 53.7717 48.6937Z" fill="#464869"/>
<path d="M121.051 45.982C121.465 45.3159 120.986 44.4543 120.201 44.4543H110.567C109.972 44.4543 109.509 43.9373 109.573 43.3455L110.773 32.3746C110.889 31.3166 109.491 30.8341 108.93 31.7382L96.9489 51.0261C96.5351 51.6922 97.0142 52.5537 97.7984 52.5537H107.425C108.02 52.5537 108.483 53.0704 108.419 53.662L107.224 64.6313C107.109 65.689 108.506 66.1711 109.067 65.2673L121.051 45.982Z" fill="white"/>
</g>
<defs>
<clipPath id="clip0_212_140">
<rect x="0.5" width="160" height="160" rx="20" fill="white"/>
</clipPath>
</defs>
</svg>
