<svg width="144" height="36" viewBox="0 0 144 36" fill="none" xmlns="http://www.w3.org/2000/svg">
<path d="M26.2366 7.30007C26.0652 6.2552 25.6353 5.32923 24.9517 4.52214C24.2658 3.71506 23.4336 3.13203 22.455 2.77307L16.1401 0.452417C15.3901 0.175768 14.6059 0.0660222 13.792 0.116322C12.9757 0.168908 12.2212 0.354104 11.5308 0.674195C10.838 0.994285 10.2252 1.45384 9.69023 2.05516C9.15522 2.65418 8.75968 3.35152 8.50361 4.14718L6.16695 11.2669C5.87886 12.138 5.79656 13.0183 5.91545 13.9122L8.9403 11.9665C9.21695 11.7882 9.53476 11.6945 9.86171 11.6945C10.6185 11.6945 11.2747 12.1815 11.4942 12.9039L14.3704 22.3581C14.5282 22.8816 14.4344 23.4304 14.1098 23.8693C13.7874 24.3037 13.2752 24.5621 12.7402 24.5621C12.539 24.5621 12.3401 24.5278 12.1504 24.4569L11.5193 24.226L9.69938 29.1783C9.66965 29.2629 9.62393 29.3337 9.56905 29.3886C9.51875 29.4412 9.45474 29.4801 9.38386 29.5075C9.23296 29.5624 9.08663 29.5647 8.93802 29.5098C8.79169 29.4572 8.67966 29.3589 8.59964 29.2194C8.51961 29.08 8.51275 28.9291 8.5722 28.7644L10.7877 22.7307L12.5459 23.3755C12.9757 23.5332 13.401 23.1308 13.2684 22.6919L10.3921 13.2378C10.2847 12.8857 9.87085 12.7325 9.55991 12.9314L6.19438 15.0966L1.24669 18.2769C0.8603 18.5238 0.924318 19.1068 1.35644 19.2646L2.56135 19.7082L0.38245 25.6436C0.371018 25.6756 0.359586 25.7099 0.348155 25.7419C0.217832 26.1168 0.121805 26.4918 0.0646457 26.8645C-0.104545 27.9779 0.0577866 29.0731 0.5585 30.1545C1.23984 31.627 2.34872 32.6467 3.88058 33.2091L10.1955 35.5275C13.3004 36.6684 16.7871 35.0862 17.832 31.8327L20.6991 23.2749C21.5656 20.5541 20.4476 17.0697 17.0958 15.8396L15.7628 15.3504C14.6608 14.9457 14.0961 13.7247 14.5007 12.6227L16.6385 6.80622C16.6979 6.64389 16.8031 6.53414 16.954 6.47698C17.1026 6.42211 17.2512 6.41982 17.3998 6.47469C17.5462 6.52728 17.6582 6.62559 17.7382 6.76506C17.816 6.90453 17.8251 7.05772 17.7657 7.22005L15.6485 12.9885C15.461 13.4961 15.7217 14.0563 16.2292 14.2438L22.6173 16.5896C23.1249 16.777 23.6873 16.5164 23.8725 16.0088L25.9554 10.3386C26.3144 9.36008 26.4104 8.34723 26.2366 7.30236V7.30007Z" fill="#18F27A"/>
<path d="M43.52 24.0285C42.5149 24.0285 41.577 23.9698 40.7079 23.851C39.8388 23.7321 39.0756 23.5288 38.4213 23.241C37.7655 22.9532 37.2529 22.5523 36.8792 22.0383C36.5069 21.5243 36.3208 20.8785 36.3208 20.0996V20.0065C36.3208 19.9664 36.3265 19.9249 36.338 19.8791H40.4201C40.4086 19.9249 40.4029 19.9664 40.4029 20.0065V20.1168C40.4029 20.4561 40.516 20.7153 40.7423 20.8957C40.9685 21.0761 41.2849 21.1978 41.6901 21.2594C42.0968 21.321 42.565 21.3525 43.0962 21.3525C43.311 21.3525 43.5343 21.3496 43.7648 21.3439C43.9968 21.3381 44.2216 21.321 44.4421 21.2937C44.6626 21.2651 44.8602 21.2236 45.0349 21.1663C45.2095 21.1105 45.3513 21.0332 45.4587 20.9372C45.5661 20.8413 45.619 20.7196 45.619 20.5735C45.619 20.3702 45.4916 20.2127 45.2382 20.0996C44.9848 19.9865 44.6397 19.8992 44.2044 19.8376C43.7691 19.776 43.2837 19.7159 42.7482 19.66C42.2113 19.6042 41.6558 19.5297 41.0802 19.4395C40.5046 19.3493 39.9476 19.2219 39.4121 19.0587C38.8752 18.8954 38.3898 18.6721 37.9559 18.39C37.5207 18.1079 37.177 17.7457 36.9222 17.3061C36.6687 16.8651 36.5413 16.3296 36.5413 15.6968C36.5413 15.0195 36.7188 14.4439 37.0754 13.9685C37.4305 13.4946 37.9144 13.1109 38.5229 12.8174C39.1329 12.5238 39.8331 12.3091 40.6234 12.173C41.4138 12.037 42.2385 11.9697 43.0962 11.9697C43.9538 11.9697 44.8043 12.0342 45.5775 12.1645C46.3507 12.2948 47.0337 12.5009 47.6265 12.783C48.2192 13.0651 48.6846 13.4345 49.0239 13.8927C49.3633 14.3508 49.5322 14.9064 49.5322 15.5607V15.7641H45.4845V15.6968C45.4845 15.4705 45.4114 15.2701 45.264 15.0954C45.1165 14.9207 44.8802 14.779 44.5523 14.6716C44.2245 14.5642 43.7949 14.5112 43.2651 14.5112C42.7354 14.5112 42.2714 14.5456 41.9106 14.6129C41.5498 14.6802 41.2806 14.7732 41.1059 14.8921C40.9313 15.0109 40.8439 15.1369 40.8439 15.2729C40.8439 15.4763 40.9714 15.6338 41.2248 15.7469C41.4782 15.86 41.8233 15.9473 42.2586 16.0089C42.6938 16.0705 43.1792 16.1306 43.7147 16.1864C44.2517 16.2437 44.8072 16.3139 45.3828 16.3983C45.9584 16.4828 46.5154 16.6017 47.0509 16.7534C47.5878 16.9052 48.0732 17.1171 48.507 17.3892C48.9423 17.6598 49.2859 18.0049 49.5408 18.4229C49.7942 18.841 49.9217 19.3551 49.9217 19.965C49.9217 20.9243 49.6425 21.7047 49.0826 22.3032C48.5242 22.9017 47.7611 23.3398 46.796 23.6162C45.831 23.8925 44.7385 24.0314 43.5186 24.0314L43.52 24.0285Z" fill="white"/>
<path d="M51.7859 23.8255V12.1719H55.9697V23.8255H51.7859Z" fill="white"/>
<path d="M58.4768 23.8255V12.1719H65.2522C66.6969 12.1719 67.9454 12.3981 68.995 12.8491C70.0445 13.3016 70.852 13.9617 71.4176 14.8308C71.9817 15.6999 72.2652 16.7566 72.2652 17.998C72.2652 19.2393 71.9832 20.296 71.4176 21.1651C70.8535 22.0343 70.0459 22.6958 68.995 23.1468C67.9454 23.5978 66.6969 23.824 65.2522 23.824H58.4768V23.8255ZM62.6606 20.9289H64.9988C65.4612 20.9289 65.8736 20.8616 66.2358 20.7256C66.5967 20.5896 66.9074 20.4006 67.168 20.1586C67.4271 19.9152 67.6247 19.6274 67.7607 19.2952C67.8968 18.9616 67.9641 18.5922 67.9641 18.1855V17.7789C67.9641 17.3723 67.8968 17.0057 67.7607 16.6778C67.6247 16.3499 67.4271 16.065 67.168 15.823C66.9074 15.5796 66.5981 15.3935 66.2358 15.2646C65.875 15.1343 65.4627 15.0699 64.9988 15.0699H62.6606V20.9303V20.9289Z" fill="white"/>
<path d="M74.2799 23.8255V12.1719H86.7296V15.0684H78.4809V16.5762H85.5956V19.3195H78.4809V20.9289H86.8656V23.8255H74.2799Z" fill="white"/>
<path d="M88.8472 23.8255V12.1719H93.031V17.3207L98.6709 12.1719H103.854L98.7053 16.9312L103.99 23.8255H98.8914L95.6225 19.4384L93.031 21.5388V23.8255H88.8472Z" fill="white"/>
<path d="M105.582 23.8255V12.1719H109.766V23.8255H105.582Z" fill="white"/>
<path d="M119.268 24.029C117.585 24.029 116.191 23.7999 115.084 23.3431C113.977 22.8864 113.149 22.2106 112.602 21.3185C112.054 20.4265 111.781 19.3197 111.781 17.9981C111.781 16.0666 112.419 14.579 113.695 13.5352C114.971 12.4914 116.839 11.9688 119.302 11.9688C120.656 11.9688 121.848 12.1807 122.876 12.6045C123.904 13.0283 124.707 13.6153 125.29 14.3656C125.871 15.1173 126.162 15.9836 126.162 16.9658H122.097C122.097 16.5592 121.978 16.1984 121.742 15.8819C121.504 15.5655 121.172 15.3178 120.742 15.1359C120.313 14.9555 119.81 14.8653 119.235 14.8653C118.512 14.8653 117.916 14.9956 117.448 15.2548C116.98 15.5154 116.634 15.8647 116.414 16.3043C116.193 16.7439 116.083 17.2364 116.083 17.7776V18.2015C116.083 18.7212 116.193 19.2037 116.414 19.6505C116.634 20.0972 116.97 20.4552 117.422 20.7258C117.873 20.9964 118.45 21.1324 119.15 21.1324C119.795 21.1324 120.344 21.0479 120.801 20.879C121.258 20.71 121.609 20.4723 121.851 20.1674C122.094 19.8624 122.214 19.5073 122.214 19.1007H126.16C126.16 20.0485 125.887 20.8962 125.339 21.6407C124.79 22.3867 124.003 22.9709 122.976 23.3933C121.948 23.8171 120.712 24.029 119.266 24.029H119.268Z" fill="white"/>
<path d="M128.178 23.8255V12.1719H132.362V17.3207L138.002 12.1719H143.185L138.036 16.9312L143.321 23.8255H138.222L134.953 19.4384L132.362 21.5388V23.8255H128.178Z" fill="white"/>
</svg>
