<svg width="220" height="26" viewBox="0 0 220 26" fill="none" xmlns="http://www.w3.org/2000/svg">
<path d="M14.7985 25.3923C12.7324 25.3923 10.8046 25.2716 9.01803 25.0274C7.2315 24.7831 5.66276 24.3651 4.31771 23.7735C2.96971 23.182 1.91604 22.3578 1.14786 21.3012C0.382619 20.2446 0 18.9172 0 17.3161V17.1248C0 17.0424 0.0117729 16.957 0.0353186 16.8629H8.42645C8.4029 16.957 8.39113 17.0424 8.39113 17.1248V17.3514C8.39113 18.049 8.62364 18.5817 9.08867 18.9525C9.5537 19.3234 10.2042 19.5736 11.0371 19.7001C11.873 19.8267 12.8354 19.8914 13.9273 19.8914C14.3688 19.8914 14.828 19.8855 15.3018 19.8738C15.7786 19.862 16.2407 19.8267 16.694 19.7708C17.1472 19.7119 17.5534 19.6265 17.9125 19.5088C18.2715 19.394 18.5629 19.2351 18.7836 19.0379C19.0044 18.8407 19.1133 18.5905 19.1133 18.2903C19.1133 17.8724 18.8513 17.5486 18.3304 17.3161C17.8094 17.0836 17.1001 16.9041 16.2054 16.7775C15.3106 16.6509 14.3129 16.5273 13.2121 16.4125C12.1084 16.2978 10.9664 16.1447 9.78327 15.9593C8.6001 15.7739 7.45518 15.5119 6.35442 15.1764C5.25071 14.8409 4.25296 14.3817 3.36116 13.8019C2.46642 13.2221 1.76005 12.4775 1.23615 11.5739C0.715203 10.6674 0.453256 9.5666 0.453256 8.2657C0.453256 6.87356 0.818216 5.69038 1.55108 4.71323C2.281 3.73902 3.27581 2.95024 4.52668 2.34688C5.78049 1.74352 7.21972 1.30204 8.84438 1.02243C10.469 0.742824 12.1643 0.604492 13.9273 0.604492C15.6903 0.604492 17.4386 0.736937 19.0279 1.00477C20.6173 1.2726 22.0212 1.69643 23.2397 2.27624C24.4582 2.85606 25.4147 3.61541 26.1123 4.55724C26.8098 5.49907 27.1571 6.64104 27.1571 7.98609V8.40403H18.8366V8.2657C18.8366 7.80067 18.6865 7.38862 18.3834 7.02955C18.0802 6.67047 17.5946 6.37909 16.9206 6.15835C16.2466 5.93761 15.3636 5.82871 14.2746 5.82871C13.1856 5.82871 12.232 5.89935 11.4903 6.03768C10.7486 6.17601 10.1953 6.36732 9.83625 6.61161C9.47718 6.8559 9.29764 7.1149 9.29764 7.39451C9.29764 7.81244 9.55959 8.1362 10.0805 8.36871C10.6015 8.60123 11.3108 8.78076 12.2055 8.90732C13.1003 9.03388 14.098 9.1575 15.1988 9.27228C16.3025 9.39001 17.4445 9.53423 18.6277 9.70788C19.8108 9.88153 20.9557 10.1258 22.0565 10.4378C23.1602 10.7498 24.158 11.1854 25.0498 11.7446C25.9445 12.3009 26.6509 13.0102 27.1748 13.8696C27.6957 14.729 27.9577 15.7856 27.9577 17.0394C27.9577 19.0114 27.3837 20.6155 26.2329 21.8457C25.0851 23.076 23.5163 23.9766 21.5326 24.5447C19.5489 25.1127 17.3032 25.3982 14.7956 25.3982L14.7985 25.3923Z" fill="white"/>
<path d="M31.7898 24.9744V1.01953H40.3899V24.9744H31.7898Z" fill="white"/>
<path d="M45.5405 24.9744V1.01953H59.4679C62.4376 1.01953 65.0041 1.48456 67.1614 2.41168C69.3188 3.34173 70.9788 4.69856 72.1414 6.4851C73.301 8.27163 73.8838 10.4437 73.8838 12.9955C73.8838 15.5473 73.3039 17.7194 72.1414 19.5059C70.9817 21.2925 69.3218 22.6522 67.1614 23.5793C65.0041 24.5065 62.4376 24.9715 59.4679 24.9715H45.5405V24.9744ZM54.1406 19.0203H58.9469C59.8976 19.0203 60.7452 18.882 61.4899 18.6023C62.2315 18.3227 62.8702 17.9342 63.4059 17.4368C63.9386 16.9365 64.3448 16.3449 64.6244 15.6621C64.904 14.9763 65.0423 14.2169 65.0423 13.3811V12.5452C65.0423 11.7093 64.904 10.9559 64.6244 10.2819C64.3448 9.60785 63.9386 9.02215 63.4059 8.52475C62.8702 8.0244 62.2345 7.64178 61.4899 7.37689C60.7482 7.10906 59.9005 6.97661 58.9469 6.97661H54.1406V19.0232V19.0203Z" fill="white"/>
<path d="M78.0278 24.9744V1.01953H103.619V6.97367H86.6633V10.0729H101.288V15.7121H86.6633V19.0203H103.899V24.9744H78.0278Z" fill="white"/>
<path d="M107.969 24.9744V1.01953H116.569V11.6034L128.163 1.01953H138.817L128.233 10.8028L139.097 24.9744H128.616L121.897 15.9564L116.569 20.2741V24.9744H107.969Z" fill="white"/>
<path d="M142.37 24.9744V1.01953H150.97V24.9744H142.37Z" fill="white"/>
<path d="M170.504 25.3923C167.046 25.3923 164.179 24.9214 161.904 23.9825C159.629 23.0436 157.927 21.6544 156.803 19.8208C155.676 17.9872 155.114 15.7121 155.114 12.9955C155.114 9.02507 156.426 5.96706 159.049 3.82145C161.671 1.67584 165.512 0.601562 170.575 0.601562C173.359 0.601562 175.808 1.03716 177.921 1.90835C180.034 2.77955 181.685 3.98627 182.883 5.52852C184.078 7.07371 184.676 8.85436 184.676 10.8734H176.32C176.32 10.0375 176.075 9.29584 175.59 8.64539C175.101 7.99494 174.418 7.48576 173.535 7.11197C172.652 6.74113 171.619 6.5557 170.436 6.5557C168.95 6.5557 167.725 6.82354 166.763 7.35626C165.801 7.89193 165.091 8.61007 164.638 9.51364C164.185 10.4172 163.958 11.4297 163.958 12.5422V13.4134C163.958 14.4818 164.185 15.4737 164.638 16.392C165.091 17.3102 165.78 18.046 166.71 18.6023C167.637 19.1586 168.823 19.4382 170.263 19.4382C171.587 19.4382 172.717 19.2645 173.656 18.9172C174.595 18.5699 175.316 18.0814 175.813 17.4545C176.314 16.8276 176.561 16.0976 176.561 15.2618H184.673C184.673 17.2102 184.11 18.9526 182.983 20.483C181.856 22.0165 180.237 23.2173 178.127 24.0855C176.014 24.9567 173.474 25.3923 170.501 25.3923H170.504Z" fill="white"/>
<path d="M188.816 24.9744V1.01953H197.416V11.6034L209.01 1.01953H219.664L209.08 10.8028L219.944 24.9744H209.463L202.744 15.9564L197.416 20.2741V24.9744H188.816Z" fill="white"/>
</svg>
