<svg width="286" height="40" viewBox="0 0 286 40" fill="none" xmlns="http://www.w3.org/2000/svg">
<path d="M284.954 35.3039L272.75 19.3867L284.307 8.70497C285.091 7.98079 285.349 6.85387 284.961 5.86366C284.799 5.44984 284.533 5.09884 284.208 4.82542C284.097 4.68871 283.971 4.56678 283.838 4.45594C283.727 4.31923 283.602 4.1973 283.469 4.08646C283.358 3.94975 283.232 3.82782 283.099 3.71698C282.988 3.58027 282.863 3.45834 282.73 3.3475C282.619 3.21079 282.493 3.08886 282.36 2.97802C282.249 2.84131 282.124 2.71938 281.991 2.60854C281.88 2.47183 281.754 2.3499 281.621 2.23905C281.51 2.10235 281.385 1.98042 281.252 1.86957C281.141 1.73287 281.015 1.61094 280.882 1.50009C280.398 0.894144 279.659 0.524663 278.861 0.524663H265.486C264.839 0.524663 264.219 0.764825 263.742 1.20081L257.213 7.16423V6.80584C257.213 5.99667 256.844 5.27619 256.26 4.80325C256.149 4.66654 256.027 4.54461 255.891 4.43377C255.78 4.29706 255.658 4.17513 255.521 4.06429C255.41 3.92758 255.288 3.80565 255.152 3.69481C255.041 3.5581 254.919 3.43617 254.782 3.32533C254.671 3.18862 254.549 3.06669 254.413 2.95585C254.302 2.81914 254.18 2.69721 254.043 2.58637C253.932 2.44966 253.811 2.32773 253.674 2.21689C253.563 2.08018 253.441 1.95825 253.304 1.8474C253.193 1.7107 253.072 1.58877 252.935 1.47792C252.462 0.897839 251.738 0.524663 250.932 0.524663H240.136C238.706 0.524663 237.55 1.68114 237.55 3.11103V9.86144C237.328 9.62128 237.099 9.38851 236.859 9.15943C236.737 9.03381 236.615 8.91188 236.489 8.78995C236.367 8.66433 236.245 8.5424 236.12 8.42047C235.998 8.29485 235.876 8.17292 235.75 8.05099C235.628 7.92536 235.506 7.80344 235.381 7.68151C235.259 7.55588 235.137 7.43396 235.011 7.31203C234.889 7.1864 234.767 7.06447 234.642 6.94255C234.52 6.81692 234.398 6.69499 234.272 6.57307C234.15 6.44744 234.028 6.32551 233.903 6.20358C233.781 6.07796 233.659 5.95603 233.533 5.8341C231.908 4.17883 229.868 2.83392 227.441 1.83263C224.488 0.617033 221.052 0 217.232 0C210.297 0 204.876 1.55551 201.126 4.6296C200.299 5.30944 199.56 6.0521 198.906 6.85018V6.80584C198.906 6.29965 198.758 5.80085 198.477 5.37964C198.178 4.92887 197.734 4.56678 197.354 4.18991C196.652 3.49898 195.95 2.80805 195.251 2.11713C195.033 1.89913 194.79 1.69222 194.601 1.44837C194.139 0.857196 193.367 0.524663 192.624 0.524663H181.828C180.905 0.524663 180.099 1.00868 179.641 1.73656C179.563 1.65158 179.482 1.57399 179.393 1.50009C178.909 0.894144 178.17 0.524663 177.372 0.524663H163.997C163.351 0.524663 162.73 0.764825 162.253 1.20081L155.724 7.16423V6.80584C155.724 5.99667 155.355 5.27619 154.771 4.80325C153.016 3.414 151.819 0.812858 149.443 0.524663H138.647C137.454 0.524663 136.456 1.33013 136.153 2.42749C135.277 1.61094 134.549 0.48402 133.182 0.524663H101.056C99.6262 0.524663 98.4697 1.68114 98.4697 3.11103V10.8332C97.0287 9.17421 95.3845 7.69998 93.8549 6.1223C92.3658 4.61851 90.5591 3.39922 88.4383 2.48661C85.4159 1.18603 81.8209 0.528358 77.7566 0.528358H60.2727C58.8428 0.528358 57.6864 1.68483 57.6864 3.11472V3.35489C57.0656 2.72677 56.4486 2.09126 55.8094 1.48162C55.3365 0.901533 54.6123 0.528358 53.8068 0.528358H43.0106C41.5807 0.528358 40.4242 1.68483 40.4242 3.11472V8.31332C40.3171 8.19878 40.2025 8.09163 40.088 7.98079C39.1052 6.99427 38.1224 6.00776 37.1322 5.02494C36.1198 3.95345 34.8672 3.05561 33.393 2.35359C31.6528 1.52596 29.6428 0.916313 27.4222 0.543137C25.294 0.18474 22.9958 0.00369481 20.5905 0.00369481C18.1852 0.00369481 15.9461 0.19213 13.7699 0.565306C11.505 0.953261 9.45065 1.58507 7.66606 2.44596C5.72259 3.38444 4.1449 4.64437 2.98104 6.19619C1.7248 7.87364 1.0856 9.8947 1.0856 12.2076C1.0856 14.2915 1.53267 16.1241 2.41573 17.6538C2.92562 18.5369 3.55373 19.3275 4.28161 20.0259C4.39985 20.1515 4.52547 20.2734 4.65109 20.3953C4.65848 20.4027 4.66587 20.4101 4.67326 20.4175H3.14731C1.96127 20.4175 0.926725 21.2267 0.63853 22.3758C0.557244 22.6972 0.516602 23.0187 0.516602 23.3327V23.5729C0.516602 26.1297 1.16689 28.3244 2.45268 30.0942C2.83694 30.6226 3.27293 31.114 3.74586 31.5721C4.85061 32.6843 5.95905 33.7927 7.07119 34.8975C8.17963 36.0724 9.5541 37.0294 11.1798 37.7425C13.0826 38.5775 15.2995 39.1724 17.7714 39.5123C20.1213 39.8337 22.6781 39.9963 25.3753 39.9963C28.7486 39.9963 31.8338 39.601 34.5458 38.8251C37.2873 38.0418 39.5338 36.7781 41.2556 35.0859C42.412 36.2239 43.539 37.3915 44.7028 38.5221C45.1758 39.1022 45.8999 39.4753 46.7054 39.4753H57.5016C58.9315 39.4753 60.088 38.3189 60.088 36.889V36.6488C60.088 36.6488 60.1102 36.6673 60.1176 36.6747C60.2284 36.8114 60.3503 36.9333 60.487 37.0442C61.5438 37.9937 62.3603 39.479 63.9675 39.4753H81.4514C85.5157 39.4753 89.1107 38.8177 92.1331 37.5171C94.712 36.4086 96.8292 34.842 98.466 32.8653V33.1942C98.466 34.0033 98.8355 34.7238 99.4192 35.1968C101.174 36.586 102.371 39.1871 104.747 39.4753H137.225C138.322 39.4753 139.257 38.7918 139.634 37.8274C139.733 37.9457 139.844 38.0565 139.966 38.1526C140.077 38.2893 140.199 38.4112 140.336 38.5221C140.808 39.1022 141.533 39.4753 142.338 39.4753H153.134C154.564 39.4753 155.721 38.3189 155.721 36.889V32.2224L158.769 29.7506L162.486 34.7423C163.713 36.0355 164.995 37.2769 166.262 38.5332C166.753 39.128 167.481 39.479 168.257 39.479H181.414C182.224 39.479 182.974 39.0985 183.454 38.4703C183.476 38.4888 183.495 38.5073 183.517 38.5258C183.99 39.1059 184.714 39.479 185.519 39.479H196.316C197.745 39.479 198.902 38.3226 198.902 36.8927V29.6952C199.283 30.157 199.689 30.6041 200.129 31.0179C201.233 32.1264 202.342 33.2385 203.454 34.3432C204.961 35.8766 206.827 37.118 209.052 38.0344C212.211 39.3386 216.175 40 220.834 40C224.884 40 228.438 39.383 231.39 38.1674C233.947 37.1144 236.038 35.6845 237.646 33.9183C237.794 34.4282 238.093 34.8753 238.496 35.2004C239.593 36.32 240.701 37.4284 241.821 38.5258C242.294 39.1059 243.018 39.479 243.823 39.479H254.62C256.05 39.479 257.206 38.3226 257.206 36.8927V32.2261L260.254 29.7543L263.971 34.746C265.759 36.2017 267.382 39.213 269.739 39.4827H282.896C283.883 39.4827 284.78 38.9248 285.216 38.0418C285.652 37.1587 285.549 36.1057 284.95 35.3224L284.954 35.3039ZM215.203 22.3647V21.271C215.203 20.2697 215.392 19.4051 215.784 18.6255C216.116 17.9605 216.641 17.4358 217.391 17.022C218.207 16.5712 219.338 16.3421 220.749 16.3421C221.208 16.3421 221.632 16.3754 222.039 16.4308C222.201 16.8446 222.467 17.2067 222.807 17.4838C222.918 17.6205 223.04 17.7425 223.177 17.8533C223.288 17.99 223.41 18.112 223.546 18.2228C223.646 18.3447 223.753 18.4556 223.875 18.5553C222.878 18.9137 222.164 19.867 222.164 20.9865C222.164 21.4484 222.05 21.8031 221.788 22.1282C221.462 22.5383 220.927 22.882 220.203 23.1517C219.316 23.4805 218.185 23.6468 216.84 23.6468C216.286 23.6468 215.78 23.6024 215.322 23.5248C215.251 23.1517 215.207 22.7711 215.207 22.3684L215.203 22.3647ZM77.3465 16.8668H80.7937C81.274 16.8668 81.7174 16.9037 82.1275 16.9703C82.146 17.1661 82.1608 17.3656 82.1608 17.5762V18.6255C82.1608 19.3349 82.0499 19.9704 81.8282 20.5136C81.6213 21.0272 81.3258 21.4558 80.9304 21.8289C80.5055 22.2243 79.9993 22.5309 79.386 22.76C78.8096 22.9743 78.1261 23.0889 77.3538 23.111V16.8631L77.3465 16.8668ZM179.238 29.7912L171.261 19.3867L179.238 12.0118V29.7912Z" fill="#2C2E49"/>
<path d="M21.6732 33.7075C19.0794 33.7075 16.6593 33.556 14.4166 33.2494C12.1738 32.9427 10.2045 32.418 8.51599 31.6754C6.82377 30.9327 5.50102 29.8982 4.53668 28.5717C3.57603 27.2453 3.0957 25.5789 3.0957 23.569V23.3288C3.0957 23.2253 3.11048 23.1182 3.14004 23H13.6739C13.6444 23.1182 13.6296 23.2253 13.6296 23.3288V23.6133C13.6296 24.489 13.9215 25.1577 14.5053 25.6233C15.0891 26.0888 15.9056 26.4029 16.9512 26.5618C18.0006 26.7206 19.2088 26.8019 20.5795 26.8019C21.1338 26.8019 21.7101 26.7945 22.305 26.7798C22.9036 26.765 23.4837 26.7206 24.0527 26.6504C24.6217 26.5765 25.1315 26.4694 25.5823 26.3216C26.0331 26.1775 26.3989 25.978 26.676 25.7304C26.9531 25.4829 27.0898 25.1688 27.0898 24.7919C27.0898 24.2673 26.761 23.8609 26.107 23.569C25.453 23.2771 24.5625 23.0517 23.4393 22.8928C22.3161 22.7339 21.0636 22.5788 19.6817 22.4347C18.2961 22.2906 16.8626 22.0984 15.3772 21.8657C13.8919 21.6329 12.4547 21.3041 11.0728 20.8828C9.68724 20.4616 8.4347 19.8852 7.31517 19.1574C6.19195 18.4295 5.3052 17.4947 4.64752 16.3604C3.99354 15.2224 3.6647 13.8405 3.6647 12.2074C3.6647 10.4598 4.12286 8.97447 5.04287 7.7478C5.95918 6.52481 7.20802 5.53461 8.77832 4.77717C10.3523 4.01973 12.1591 3.46551 14.1986 3.11451C16.2381 2.7635 18.3663 2.58984 20.5795 2.58984C22.7927 2.58984 24.9874 2.75611 26.9826 3.09234C28.9778 3.42857 30.7403 3.96062 32.2699 4.68849C33.7996 5.41637 35.0004 6.36963 35.876 7.55197C36.7517 8.73431 37.1877 10.1679 37.1877 11.8564V12.3811H26.7425V12.2074C26.7425 11.6237 26.554 11.1064 26.1735 10.6556C25.7929 10.2048 25.1833 9.83906 24.3372 9.56195C23.491 9.28484 22.3826 9.14813 21.0155 9.14813C19.6484 9.14813 18.4513 9.2368 17.5202 9.41046C16.5891 9.58412 15.8945 9.82428 15.4438 10.1309C14.993 10.4376 14.7676 10.7628 14.7676 11.1138C14.7676 11.6384 15.0964 12.0449 15.7504 12.3367C16.4044 12.6286 17.2949 12.854 18.4181 13.0129C19.5413 13.1718 20.7938 13.327 22.1757 13.4711C23.5612 13.6188 24.9948 13.7999 26.4801 14.0179C27.9655 14.2359 29.4027 14.5425 30.7846 14.9342C32.1702 15.3258 33.4227 15.8727 34.5422 16.5747C35.6654 17.273 36.5522 18.1635 37.2099 19.2423C37.8639 20.3212 38.1927 21.6477 38.1927 23.2217C38.1927 25.6972 37.4722 27.7108 36.0275 29.2553C34.5866 30.7997 32.6172 31.9303 30.1269 32.6434C27.6366 33.3565 24.8175 33.7149 21.6695 33.7149L21.6732 33.7075Z" fill="white"/>
<path d="M43.0034 33.1824V3.11035H53.7996V33.1824H43.0034Z" fill="white"/>
<path d="M60.2656 33.1824V3.11035H77.7495C81.4775 3.11035 84.6994 3.69413 87.4077 4.858C90.116 6.02556 92.1999 7.72886 93.6593 9.97161C95.1151 12.2144 95.8466 14.9411 95.8466 18.1445C95.8466 21.3479 95.1188 24.0747 93.6593 26.3174C92.2035 28.5602 90.1197 30.2672 87.4077 31.4311C84.6994 32.5949 81.4775 33.1787 77.7495 33.1787H60.2656V33.1824ZM71.0619 25.7078H77.0955C78.2889 25.7078 79.353 25.5341 80.2878 25.1831C81.2189 24.8321 82.0207 24.3444 82.6931 23.72C83.3619 23.0919 83.8718 22.3492 84.2228 21.492C84.5738 20.6311 84.7474 19.6779 84.7474 18.6285V17.5792C84.7474 16.5299 84.5738 15.584 84.2228 14.7379C83.8718 13.8918 83.3619 13.1565 82.6931 12.5321C82.0207 11.904 81.2226 11.4237 80.2878 11.0911C79.3567 10.7549 78.2926 10.5886 77.0955 10.5886H71.0619V25.7115V25.7078Z" fill="white"/>
<path d="M101.049 33.1824V3.11035H133.175V10.5849H111.889V14.4756H130.249V21.5548H111.889V25.7078H133.526V33.1824H101.049Z" fill="white"/>
<path d="M138.636 33.1824V3.11035H149.432V16.3969L163.986 3.11035H177.362L164.075 15.3919L177.713 33.1824H164.555L156.12 21.8615L149.432 27.2818V33.1824H138.636Z" fill="white"/>
<path d="M181.821 33.1824V3.11035H192.617V33.1824H181.821Z" fill="white"/>
<path d="M217.139 33.7073C212.798 33.7073 209.199 33.1161 206.343 31.9375C203.487 30.7589 201.352 29.0149 199.94 26.713C198.525 24.4112 197.819 21.5551 197.819 18.1448C197.819 13.1605 199.467 9.32157 202.759 6.62806C206.051 3.93454 210.873 2.58594 217.228 2.58594C220.723 2.58594 223.798 3.13277 226.45 4.22643C229.103 5.3201 231.176 6.83497 232.68 8.77105C234.18 10.7108 234.93 12.9462 234.93 15.4808H224.44C224.44 14.4315 224.134 13.5004 223.524 12.6838C222.911 11.8673 222.054 11.2281 220.945 10.7589C219.837 10.2933 218.54 10.0605 217.055 10.0605C215.189 10.0605 213.652 10.3968 212.443 11.0655C211.235 11.738 210.345 12.6395 209.776 13.7738C209.207 14.9081 208.922 16.1791 208.922 17.5758V18.6694C208.922 20.0107 209.207 21.2558 209.776 22.4086C210.345 23.5614 211.209 24.4851 212.377 25.1834C213.541 25.8817 215.03 26.2327 216.837 26.2327C218.499 26.2327 219.918 26.0147 221.097 25.5787C222.275 25.1427 223.18 24.5294 223.805 23.7424C224.433 22.9554 224.743 22.0391 224.743 20.9898H234.926C234.926 23.4357 234.221 25.6231 232.805 27.5444C231.39 29.4694 229.358 30.9768 226.709 32.0668C224.056 33.1605 220.868 33.7073 217.136 33.7073H217.139Z" fill="white"/>
<path d="M240.129 33.1824V3.11035H250.925V16.3969L265.479 3.11035H278.854L265.568 15.3919L279.205 33.1824H266.048L257.613 21.8615L250.925 27.2818V33.1824H240.129Z" fill="white"/>
</svg>
